<?xml version="1.0" encoding="utf-8"?>
<!-- Generator: Adobe Illustrator 22.1.0, SVG Export Plug-In . SVG Version: 6.00 Build 0)  -->
<svg version="1.1" xmlns="http://www.w3.org/2000/svg" xmlns:xlink="http://www.w3.org/1999/xlink" x="0px" y="0px"
	 viewBox="0 0 600 248" style="enable-background:new 0 0 600 248;" xml:space="preserve">
<style type="text/css">
	.st0{fill-rule:evenodd;clip-rule:evenodd;fill:#2A4E98;}
	.st1{fill-rule:evenodd;clip-rule:evenodd;fill:#DAA520;}
	.st2{fill:#DAA520;}
	.st3{fill:#D2AB67;}
	.st4{fill:#003A80;}
	.st5{fill:#2A4E98;}
</style>
<g id="bg">
</g>
<g id="V">
	<g>
		<polygon class="st0" points="532.3,53.4 525.5,60.6 596.8,133 597.2,118.5 		"/>
		<polygon class="st0" points="594.4,98.6 557.1,61 551.1,67.9 596.8,114 		"/>
	</g>
	<g>
		<polygon class="st0" points="5.2,153.2 14.8,153.2 14.8,109.6 5.6,109.6 		"/>
		<path class="st0" d="M55.3,128.6c0,1.6,0,3.6,0,5.3c0.4,1.6,0.4,3.2,0.4,4.9c0-0.4-0.4-1.2-1.2-2.4c-1.6-2.4-2.4-4.4-3.2-5.3
			L38,109.6h-8v43.7h8.8v-18.6c0-2,0-4,0-5.7c-0.4-1.6-0.4-3.2-0.4-4.9c0.4,0.8,1.2,2,2,4c1.2,2,2,3.2,2.4,4l13.2,21h8v-43.7h-8.8
			V128.6z"/>
		<path class="st0" d="M89.3,125.7c-1.6-1.6-2.8-3.2-3.2-4.5c-0.8-1.2-1.2-2.4-1.2-3.2c0-1.2,0.8-2.4,2-3.2c1.2-0.8,3.2-1.2,5.2-1.2
			c1.2,0,2.4,0.4,3.6,0.4c1.2,0.4,2.4,0.8,3.6,1.6v-5.3c-1.2-0.8-2.8-0.8-4-1.2c-1.6-0.4-2.8-0.4-4.4-0.4c-4.4,0-8,0.8-11.2,2.8
			c-2.8,1.6-4.4,4-4.4,6.5c0,1.6,0.8,3.6,1.6,5.3c1.2,2,3.6,5.3,7.2,9.3c0.4,0.4,1.2,1.2,2,2.4c4,4.4,6,7.3,6,8.9
			c0,1.6-0.8,2.8-2,3.6c-1.6,0.8-3.2,1.2-5.6,1.2c-1.6,0-2.8-0.4-4.4-0.8c-1.2-0.4-2.8-0.8-4.4-1.6v6.1c1.6,0.4,3.2,0.8,4.8,1.2
			c1.6,0,3.2,0.4,4.4,0.4c4.8,0,8.8-1.2,11.6-2.8c3.2-2,4.8-4.4,4.8-7.3c0-2.8-2.8-7.3-8.4-13.8C91.3,128.2,90.1,126.9,89.3,125.7z"
			/>
		<path class="st0" d="M138.2,143.1c0,2-0.4,3.2-2,4.1c-1.2,1.2-3.2,1.6-5.6,1.6c-2.4,0-4.4-0.4-5.6-1.6c-1.2-0.8-2-2.4-2-4.1v-33.5
			h-9.2l-0.4,33.5c0,3.2,1.6,6.1,4.8,8.1c2.8,2,7.2,2.8,12.4,2.8c5.2,0,9.2-0.8,12.4-2.8c3.2-2,4.8-4.8,4.8-8.1v-33.5h-9.2
			L138.2,143.1z"/>
		<path class="st0" d="M186.7,134.2c-1.2-1.6-3.2-2.8-5.6-3.6c3.2-0.8,5.2-2,6.8-3.6c1.6-1.6,2-3.2,2-5.7c0-3.6-1.6-6.5-4.8-8.5
			c-2.4-1.6-5.6-2.4-9.2-2.8c-1.6,0-3.2-0.4-4.8-0.4h-8.8v43.7h9.2v-19.8c0.4,0,0.4,0,0.8,0h0.4c1.2,0,2.4,0,3.2,0.4
			c0.8,0.4,1.6,1.2,2,1.6c1.6,1.6,3.2,4,4.4,7.7l4.4,10.1h9.6l-4.8-11.3C189.8,138.3,188.3,135.8,186.7,134.2z M178.2,126.5
			c-0.8,0.8-1.6,1.2-2.4,1.2c-1.2,0.4-2.4,0.4-3.6,0.4h-0.8v-13.3h0.4c1.6,0,2.8,0,4,0.4c0.8,0.4,1.6,0.8,2.4,1.2
			c1.6,1.6,2,3.2,2,5.7C180.2,124.1,179.8,125.7,178.2,126.5z"/>
		<path class="st0" d="M217.9,110h-5.2l-14,43.3h9.6l2.8-9.3h6.8h7.2l2.8,9.7h9.6L223.1,110H217.9z M217.9,138.7h-5.6l4-14.2
			c0.4-0.8,0.8-1.6,0.8-2.8c0.4-0.8,0.4-2,0.8-3.6c0.4,1.2,0.4,2.4,0.8,3.6c0,0.8,0.4,2,0.8,2.8l4,14.2H217.9z"/>
		<path class="st0" d="M271.2,129c0,1.6,0,3.6,0,5.3c0.4,1.6,0.4,3.2,0.4,4.8c0-0.4-0.4-1.2-1.2-2.4c-1.6-2.4-2.4-4.4-3.2-5.3
			L253.9,110h-8v43.7h8.8v-19c0-1.6,0-3.6,0-5.3c-0.4-1.6-0.4-3.2-0.4-4.9c0.4,0.8,1.2,2,2,4.1c1.2,1.6,2,3.2,2.4,3.6l13.2,21.4h8
			V110h-8.8V129z"/>
		<path class="st0" d="M311.2,109.2c-6.8,0-11.6,2-14.8,5.7c-3.6,3.6-5.2,9.7-5.2,17.4c0,7.3,2,12.5,5.2,16.6
			c3.6,3.6,8.4,5.3,15.2,5.3c2,0,4,0,5.6-0.4c2-0.4,3.6-1.2,4.8-2l0.4-5.7c-2,1.2-3.6,2-5.6,2.4c-1.6,0.4-3.2,0.8-4.8,0.8
			c-4,0-6.4-1.6-8.4-4.5c-1.6-2.4-2.4-7.3-2.4-13.3c0-6.5,0.8-10.9,2.8-13.3c1.6-2.4,4.4-4,8.8-3.6c1.2,0,2.8,0,4.4,0.4
			c1.6,0.4,3.2,1.2,5.2,2v-5.7c-2-0.8-3.6-1.2-5.6-1.6C314.8,109.6,313.2,109.2,311.2,109.2z"/>
		<polygon class="st0" points="342.5,148.4 342.5,133.4 358.9,133.4 358.9,128.2 342.5,128.2 342.5,115.2 360.5,115.2 360.5,110 
			333.2,110 333.2,153.6 361.3,153.6 361.3,148.4 		"/>
	</g>
	<polyline class="st1" points="0,158.9 353.3,159.7 345.3,167 0,166.6 0,158.9 	"/>
	<path class="st2" d="M600,123.3c0-34-13.6-64.7-35.6-86.9C542.3,13.7,511.9,0,478.2,0c-13.2,0-26.4,2-38.9,6.5
		C427,10.5,415,17,404.5,24.7l4,5.7c10-7.7,21.2-13.7,32.8-17.8c12-4,24.4-6.1,36.8-6.1c31.6,0,60.5,13.3,81.3,34.4
		c20.8,21,33.6,50.1,33.6,82.5c0,3.8-0.2,7.5-0.6,11.2l6.1,6.2C599.6,134.9,600,129.2,600,123.3"/>
	<path class="st3" d="M598.2,143.9C598.2,143.9,598.2,143.9,598.2,143.9C598.2,143.9,598.2,143.9,598.2,143.9"/>
	<path class="st4" d="M598.8,140.7L598.8,140.7c-0.2,1-0.4,2.1-0.6,3.2C598.4,142.8,598.6,141.8,598.8,140.7"/>
	<path class="st5" d="M592.6,134.5l-86.8-87.6l-75.7,78.4l-18.4-21.4L301.1,222l237.3,0.4l-0.3,0.2c-4.3,2.6-8.8,5-13.4,7
		l-230.3-0.4l-17.1,18.2l203.5,0.4c62.1-6.5,103.2-40.8,116-96.1c0.1-0.3,0.1-0.5,0.2-0.8c0.2-0.7,0.3-1.5,0.5-2.2
		c0.3-1.6,0.7-3.2,0.9-4.8c0,0,0,0,0,0c0.2-1.1,0.3-2.2,0.5-3.2L592.6,134.5"/>
	<path class="st5" d="M561,227.6c4.9,0,8.8,4,8.8,9c0,5.1-3.9,9.1-8.8,9.1c-4.9,0-8.9-4-8.9-9.1C552.1,231.6,556,227.6,561,227.6
		L561,227.6 M560.9,229c-3.9,0-7.2,3.4-7.2,7.6c0,4.3,3.2,7.7,7.2,7.7c4,0,7.2-3.4,7.2-7.6C568.1,232.4,564.9,229,560.9,229
		L560.9,229z M559.3,241.9h-1.6v-10.1c0.8-0.1,1.6-0.2,2.8-0.2c1.5,0,2.5,0.3,3.1,0.8c0.6,0.4,0.9,1.1,0.9,2.1
		c0,1.3-0.9,2.1-1.9,2.5v0.1c0.9,0.2,1.5,1,1.7,2.5c0.2,1.6,0.5,2.2,0.6,2.5h-1.7c-0.2-0.3-0.5-1.2-0.7-2.6
		c-0.2-1.3-0.9-1.8-2.2-1.8h-1.1V241.9z M559.3,236.3h1.2c1.3,0,2.4-0.5,2.4-1.7c0-0.9-0.6-1.8-2.4-1.8c-0.5,0-0.9,0-1.2,0.1V236.3z
		"/>
	<g>
		<polygon class="st0" points="394.1,34 394.1,48.1 413.3,48.1 413.3,102.7 433,102.7 433,48.1 452.6,48.1 452.6,34 		"/>
		<path class="st0" d="M367.7,49.7c0.4-4.9,7.6-4.9,15.2-0.8l5.2-10.9c-12-7.7-25.6-6.9-34.8,0.4c-5.6,4.4-7.6,12.1-6,17.8
			c4,14.6,27.6,19.4,19.6,31.5c-9.2,4-12.4-0.4-18.8-3.2l-5.6,11.3c7.6,8.1,28.4,9.7,38.4,1.6c10.4-8.5,9.2-22.6,3.2-29.5
			C375.7,58.2,367.3,52.1,367.7,49.7z"/>
		<polygon class="st0" points="312,73.6 332.4,73.6 332.4,59.8 312,59.8 312,47.7 333.2,47.7 333.2,34 290.8,33.6 290.8,102.7 
			336.8,102.7 336.8,88.5 312,88.5 		"/>
		<polygon class="st0" points="256.3,77.2 241.5,33.6 222.3,33.6 207.9,76.8 198.7,33.6 176.6,33.6 194.3,102.3 217.9,102.3 
			230.3,60.6 243.5,102.7 266.4,102.7 284.4,33.6 264.4,33.6 		"/>
		<polygon class="st0" points="153.4,33.6 133,33.6 132.6,102.3 177.8,102.3 177.8,87.3 153.4,87.3 		"/>
		<polygon class="st0" points="99.7,33.1 78.9,33.1 78.5,102.3 124.6,102.3 124.6,87.3 99.7,87.3 		"/>
		<path class="st0" d="M34.8,33.1h-5.6l-28,68.7l16,0.4l7.6-16.6h10h9.6l5.6,16.6h22.8l-26-68.7L34.8,33.1z M34.8,74H28l6.8-20.6
			l0.8-1.6l6,22.2H34.8z"/>
	</g>
</g>
</svg>
